# Blender 4.2.2 LTS
# www.blender.org
mtllib hat.mtl
o C-flatpeak
v 2.296358 0.070776 -1.849543
v 2.296157 0.125876 -1.811226
v 2.301403 0.070776 -1.811226
v 2.291291 0.125876 -1.848186
v 2.277026 0.125876 -1.882626
v 2.281569 0.070776 -1.885249
v 2.254332 0.125876 -1.912201
v 2.258041 0.070776 -1.915910
v 2.190317 0.125876 -1.949160
v 2.227380 0.070776 -1.939437
v 2.191674 0.070776 -1.954227
v 2.224757 0.125876 -1.934895
v 2.291291 0.125876 -1.774267
v 2.296358 0.070776 -1.772909
v 2.277026 0.125876 -1.739826
v 2.281569 0.070776 -1.737203
v 2.254332 0.125876 -1.710251
v 2.258041 0.070776 -1.706542
v 2.153357 0.125876 -1.954026
v 2.153357 0.070776 -1.959272
v 2.116398 0.125876 -1.949160
v 2.115040 0.070776 -1.954227
v 2.081957 0.125876 -1.934895
v 2.094862 0.070776 -1.945869
v 2.079334 0.070776 -1.939437
v 2.105457 0.070776 -1.950258
v 2.029689 0.125876 -1.882626
v 2.010356 0.070776 -1.849543
v 2.015423 0.125876 -1.848186
v 2.025146 0.070776 -1.885249
v 2.280212 0.159124 -1.834705
v 2.281967 0.159124 -1.801073
v 2.269813 0.159124 -1.866738
v 2.251477 0.159124 -1.894987
v 2.226455 0.159124 -1.917528
v 2.196451 0.159124 -1.932825
v 2.163511 0.159124 -1.939836
v 2.193324 0.159124 -1.933491
v 2.129878 0.159124 -1.938081
v 2.097846 0.159124 -1.927682
v 2.069596 0.159124 -1.909346
v 2.052382 0.125876 -1.912201
v 2.047055 0.159124 -1.884324
v 2.031758 0.159124 -1.854320
v 2.024748 0.159124 -1.821380
v 2.010557 0.125876 -1.811226
v 2.026502 0.159124 -1.787747
v 2.015423 0.125876 -1.774267
v 2.036901 0.159124 -1.755715
v 2.029689 0.125876 -1.739826
v 2.052382 0.125876 -1.710251
v 2.055237 0.159124 -1.727465
v 2.080260 0.159124 -1.704924
v 2.081957 0.125876 -1.687558
v 2.110263 0.159124 -1.689627
v 2.116398 0.125876 -1.673292
v 2.143204 0.159124 -1.682617
v 2.153357 0.125876 -1.668426
v 2.176836 0.159124 -1.684371
v 2.190317 0.125876 -1.673292
v 2.208869 0.159124 -1.694770
v 2.224757 0.125876 -1.687558
v 2.237118 0.159124 -1.713106
v 2.252958 0.125876 -1.716249
v 2.259660 0.159124 -1.738128
v 2.274956 0.159124 -1.768132
v 2.264536 0.170257 -1.860108
v 2.273400 0.170257 -1.829667
v 2.274082 0.170257 -1.797970
v 2.266538 0.170257 -1.767176
v 2.248096 0.170257 -1.887218
v 2.225200 0.170257 -1.909149
v 2.197408 0.170257 -1.924407
v 2.166614 0.170257 -1.931951
v 2.134916 0.170257 -1.931268
v 2.104475 0.170257 -1.922405
v 2.077366 0.170257 -1.905965
v 2.055435 0.170257 -1.883069
v 2.040177 0.170257 -1.855277
v 2.032632 0.170257 -1.824483
v 2.033315 0.170257 -1.792785
v 2.042178 0.170257 -1.762344
v 2.058618 0.170257 -1.735234
v 2.081514 0.170257 -1.713304
v 2.109307 0.170257 -1.698046
v 2.140101 0.170257 -1.690501
v 2.171798 0.170257 -1.691184
v 2.202240 0.170257 -1.700047
v 2.229349 0.170257 -1.716487
v 2.251280 0.170257 -1.739383
v 2.220062 0.180976 -1.729878
v 2.238844 0.180976 -1.749915
v 2.251799 0.180976 -1.774129
v 2.258046 0.180976 -1.800872
v 2.249014 0.170257 -1.807446
v 2.257159 0.180976 -1.828320
v 2.249198 0.180976 -1.854604
v 2.234705 0.180976 -1.877931
v 2.214669 0.180976 -1.896713
v 2.196735 0.180976 -1.715386
v 2.170451 0.180976 -1.707424
v 2.143003 0.180976 -1.706537
v 2.116260 0.180976 -1.712784
v 2.092046 0.180976 -1.725740
v 2.072009 0.180976 -1.744521
v 2.057517 0.180976 -1.767849
v 2.049555 0.180976 -1.794132
v 2.048668 0.180976 -1.821580
v 2.054915 0.180976 -1.848323
v 2.067871 0.180976 -1.872538
v 2.086652 0.180976 -1.892574
v 2.109980 0.180976 -1.907067
v 2.136263 0.180976 -1.915028
v 2.163712 0.180976 -1.915915
v 2.190454 0.180976 -1.909668
v 2.080451 0.188090 -1.771675
v 2.093171 0.188090 -1.754153
v 2.109994 0.188090 -1.740521
v 2.129771 0.188090 -1.731707
v 2.151156 0.188090 -1.728312
v 2.172691 0.188090 -1.730567
v 2.192908 0.188090 -1.738319
v 2.224063 0.188090 -1.767862
v 2.210430 0.188090 -1.751040
v 2.232877 0.188090 -1.787640
v 2.236272 0.188090 -1.809025
v 2.234016 0.188090 -1.830560
v 2.226264 0.188090 -1.850777
v 2.213543 0.188090 -1.868299
v 2.196721 0.188090 -1.881932
v 2.176944 0.188090 -1.890746
v 2.155559 0.188090 -1.894141
v 2.134024 0.188090 -1.891885
v 2.113806 0.188090 -1.884133
v 2.096284 0.188090 -1.871412
v 2.082652 0.188090 -1.854590
v 2.073838 0.188090 -1.834812
v 2.070443 0.188090 -1.813427
v 2.072698 0.188090 -1.791893
v 2.108591 0.193083 -1.772484
v 2.100090 0.193083 -1.785390
v 2.120144 0.193083 -1.762218
v 2.133960 0.193083 -1.755291
v 2.149098 0.193083 -1.752177
v 2.145114 0.193083 -1.752996
v 2.164526 0.193083 -1.753087
v 2.179193 0.193083 -1.757958
v 2.192100 0.193083 -1.766460
v 2.202366 0.193083 -1.778013
v 2.212407 0.193083 -1.806967
v 2.209292 0.193083 -1.791829
v 2.211497 0.193083 -1.822395
v 2.206625 0.193083 -1.837062
v 2.198123 0.193083 -1.849969
v 2.186571 0.193083 -1.860235
v 2.172755 0.193083 -1.867161
v 2.157617 0.193083 -1.870275
v 2.142188 0.193083 -1.869366
v 2.127521 0.193083 -1.864494
v 2.114615 0.193083 -1.855992
v 2.104349 0.193083 -1.844440
v 2.097422 0.193083 -1.830623
v 2.094308 0.193083 -1.815485
v 2.095218 0.193083 -1.800057
v 2.158278 0.195794 -1.811226
v 2.158111 0.195794 -1.809952
v 2.158111 0.195794 -1.812500
v 2.157619 0.195794 -1.813687
v 2.156837 0.195794 -1.814706
v 2.157619 0.195794 -1.808766
v 2.156837 0.195794 -1.807746
v 2.155818 0.195794 -1.806964
v 2.163447 0.193345 -1.758228
v 2.154631 0.195794 -1.806473
v 2.153357 0.195794 -1.806305
v 2.152084 0.195794 -1.806473
v 2.150897 0.195794 -1.806964
v 2.148647 0.195595 -1.803690
v 2.149878 0.195794 -1.807746
v 2.149095 0.195794 -1.808766
v 2.148604 0.195794 -1.809952
v 2.148436 0.195794 -1.811226
v 2.156869 0.195681 -1.817018
v 2.155818 0.195794 -1.815488
v 2.148604 0.195794 -1.812500
v 2.149095 0.195794 -1.813687
v 2.149878 0.195794 -1.814706
v 2.150897 0.195794 -1.815488
v 2.152084 0.195794 -1.815980
v 2.153357 0.195794 -1.816147
v 2.154631 0.195794 -1.815980
v 2.005312 0.070776 -1.811226
v 2.008042 0.070776 -1.831964
v 2.105457 0.061376 -1.950258
v 2.115040 0.061376 -1.954227
v 2.094862 0.061376 -1.945869
v 2.079334 0.061376 -1.939437
v 2.076431 0.061376 -1.937210
v 2.076431 0.070776 -1.937210
v 2.056962 0.061376 -1.922271
v 2.056962 0.070776 -1.922271
v 2.048673 0.061376 -1.915910
v 2.048673 0.070776 -1.915910
v 2.046861 0.070776 -1.913548
v 2.046861 0.061376 -1.913548
v 2.040557 0.070776 -1.905333
v 2.040557 0.061376 -1.905333
v 2.025146 0.061376 -1.885249
v 2.010356 0.061376 -1.849543
v 2.008042 0.061376 -1.831964
v 2.005312 0.061376 -1.811226
v 2.008042 0.070776 -1.790488
v 2.008042 0.061376 -1.790488
v 2.010356 0.070776 -1.772909
v 2.010356 0.061376 -1.772909
v 2.025146 0.070776 -1.737203
v 2.025146 0.061376 -1.737203
v 2.040557 0.070776 -1.717119
v 2.040557 0.061376 -1.717119
v 2.046861 0.070776 -1.708905
v 2.046861 0.061376 -1.708905
v 2.048673 0.070776 -1.706542
v 2.048673 0.061376 -1.706542
v 2.056962 0.061376 -1.700181
v 2.056962 0.070776 -1.700181
v 2.076431 0.061376 -1.685243
v 2.076431 0.070776 -1.685243
v 2.148604 0.198294 -1.812500
v 2.148604 0.198294 -1.809952
v 2.148436 0.198294 -1.811226
v 2.149095 0.198294 -1.813687
v 2.149095 0.198294 -1.808766
v 2.150897 0.198294 -1.815488
v 2.149878 0.198294 -1.807746
v 2.150897 0.198294 -1.806964
v 2.153357 0.198294 -1.816147
v 2.152084 0.198294 -1.806473
v 2.153357 0.198294 -1.806305
v 2.154631 0.198294 -1.815980
v 2.154631 0.198294 -1.806473
v 2.155818 0.198294 -1.815488
v 2.155818 0.198294 -1.806964
v 2.156837 0.198294 -1.814706
v 2.156837 0.198294 -1.807746
v 2.157619 0.198294 -1.813687
v 2.157619 0.198294 -1.808766
v 2.158278 0.198294 -1.811226
v 2.158111 0.198294 -1.809952
v 2.227380 0.057676 -1.939437
v 2.191674 0.057676 -1.954227
v 2.258041 0.057676 -1.915910
v 2.281569 0.057676 -1.885249
v 2.296358 0.057676 -1.849543
v 2.301403 0.057676 -1.811226
v 2.296358 0.057676 -1.772909
v 2.281569 0.057676 -1.737203
v 2.258041 0.057676 -1.706542
v 2.153357 0.057676 -1.959272
v 2.115040 0.057676 -1.954227
v 1.934739 0.061376 -1.912972
v 1.949934 0.057676 -1.927872
v 1.934739 0.057676 -1.912972
v 1.949934 0.061376 -1.927872
v 1.963242 0.057676 -1.937272
v 1.963242 0.061376 -1.937272
v 1.979870 0.057676 -1.945572
v 1.979870 0.061376 -1.945572
v 1.998738 0.057676 -1.952472
v 1.998738 0.061376 -1.952472
v 2.008042 0.057676 -1.954672
v 2.008042 0.061376 -1.954672
v 2.046861 0.057676 -1.959272
v 2.046861 0.061376 -1.959272
v 2.056962 0.057676 -1.959272
v 2.056962 0.061376 -1.959272
v 2.095736 0.057676 -1.956749
v 2.095736 0.061376 -1.956749
v 2.095736 0.061376 -1.665703
v 2.056962 0.057676 -1.663181
v 2.095736 0.057676 -1.665703
v 2.056962 0.061376 -1.663181
v 2.046861 0.057676 -1.663181
v 2.046861 0.061376 -1.663181
v 2.008042 0.057676 -1.667733
v 2.008042 0.061376 -1.667733
v 1.998738 0.057676 -1.669945
v 1.998738 0.061376 -1.669945
v 1.979870 0.061376 -1.676837
v 1.963242 0.057676 -1.685219
v 1.979870 0.057676 -1.676837
v 1.963242 0.061376 -1.685219
v 1.949934 0.057676 -1.694620
v 1.949934 0.061376 -1.694620
v 1.934739 0.057676 -1.709445
v 1.934739 0.061376 -1.709445
v 2.115040 0.061376 -1.668225
v 2.115040 0.057676 -1.668225
v 2.079334 0.061376 -1.683015
v 2.105457 0.057676 -1.672195
v 2.079334 0.057676 -1.683015
v 2.105457 0.061376 -1.672195
v 2.076431 0.057676 -1.685243
v 2.056962 0.057676 -1.700181
v 2.048673 0.057676 -1.706542
v 2.077801 0.057676 -1.684192
v 2.077801 0.061376 -1.684192
v 2.046861 0.057676 -1.708905
v 2.025146 0.057676 -1.737203
v 2.040557 0.057676 -1.717119
v 1.927517 0.061376 -1.717966
v 1.927517 0.057676 -1.717966
v 1.906669 0.061376 -1.765247
v 1.908944 0.057676 -1.755841
v 1.908944 0.061376 -1.755841
v 1.906669 0.057676 -1.765247
v 1.902420 0.061376 -1.820479
v 1.902420 0.057676 -1.801973
v 1.902420 0.061376 -1.801973
v 1.902420 0.057676 -1.820479
v 1.906669 0.061376 -1.857572
v 1.903490 0.057676 -1.838738
v 1.903490 0.061376 -1.838738
v 1.906669 0.057676 -1.857572
v 1.911219 0.061376 -1.876072
v 1.911219 0.057676 -1.876072
v 1.915019 0.061376 -1.885249
v 1.915019 0.057676 -1.885249
v 2.025146 0.057676 -1.885249
v 2.010356 0.057676 -1.849543
v 2.040557 0.057676 -1.905333
v 2.105457 0.057676 -1.950258
v 2.046861 0.057676 -1.913548
v 2.048673 0.057676 -1.915910
v 2.056962 0.057676 -1.922271
v 2.076431 0.057676 -1.937210
v 2.079334 0.057676 -1.939437
v 1.927517 0.057676 -1.904472
v 1.927517 0.061376 -1.904472
v 2.010356 0.057676 -1.772909
v 2.094862 0.057676 -1.945869
v 2.008042 0.057676 -1.790488
v 2.008042 0.057676 -1.831964
v 2.005312 0.057676 -1.811226
v 1.903035 0.057676 -1.792304
v 1.903035 0.061376 -1.792304
v 1.913158 0.057676 -1.742280
v 1.913158 0.061376 -1.742280
v 1.917874 0.057676 -1.732342
v 1.917874 0.061376 -1.732342
v 1.924071 0.057676 -1.722569
v 1.924071 0.061376 -1.722569
v 1.921247 0.057676 -1.896174
v 1.921247 0.061376 -1.896174
v 1.991435 0.057676 -1.897487
v 1.924193 0.057676 -1.722885
v 1.921759 0.057676 -1.726487
v 2.105457 0.070776 -1.672195
v 2.115040 0.070776 -1.668225
v 2.079334 0.070776 -1.683015
v 2.191674 0.070776 -1.668225
v 2.227380 0.070776 -1.683015
v 2.191674 0.057676 -1.668225
v 2.227380 0.057676 -1.683015
v 2.077801 0.070776 -1.684192
v 2.153357 0.070776 -1.663181
v 2.153357 0.057676 -1.663181
vn 0.9871 0.0940 -0.1299
vn 0.9198 0.0940 -0.3810
vn 0.7898 0.0940 -0.6061
vn 0.3810 0.0940 -0.9198
vn 0.9871 0.0940 0.1299
vn 0.9198 0.0940 0.3810
vn 0.7898 0.0940 0.6061
vn 0.1299 0.0940 -0.9871
vn -0.1299 0.0940 -0.9871
vn -0.3810 0.0940 -0.9198
vn -0.9198 0.0940 -0.3810
vn 0.9134 0.4044 -0.0476
vn 0.9258 0.3579 -0.1219
vn 0.8699 0.4044 -0.2824
vn 0.8627 0.3579 -0.3573
vn 0.7672 0.4044 -0.4979
vn 0.7408 0.3579 -0.5684
vn 0.6121 0.4044 -0.6795
vn 0.5684 0.3579 -0.7408
vn 0.4154 0.4044 -0.8148
vn 0.3573 0.3579 -0.8627
vn 0.1904 0.4044 -0.8946
vn -0.0000 -1.0000 -0.0000
vn 0.1219 0.3579 -0.9258
vn -0.0476 0.4044 -0.9134
vn -0.1219 0.3579 -0.9258
vn -0.2824 0.4044 -0.8699
vn -0.3573 0.3579 -0.8627
vn -0.4979 0.4044 -0.7672
vn -0.5684 0.3579 -0.7408
vn -0.6795 0.4044 -0.6121
vn -0.7408 0.3579 -0.5684
vn -0.8148 0.4044 -0.4154
vn -0.8627 0.3579 -0.3573
vn -0.8946 0.4044 -0.1904
vn -0.9258 0.3579 -0.1219
vn -0.9134 0.4044 0.0476
vn -0.9258 0.3579 0.1219
vn -0.8699 0.4044 0.2824
vn -0.8627 0.3579 0.3573
vn -0.7408 0.3579 0.5684
vn -0.6121 0.4044 0.6795
vn -0.5684 0.3579 0.7408
vn -0.4154 0.4044 0.8148
vn -0.3573 0.3579 0.8627
vn -0.1904 0.4044 0.8946
vn -0.1219 0.3579 0.9258
vn 0.0476 0.4044 0.9134
vn 0.1219 0.3579 0.9258
vn 0.2824 0.4044 0.8699
vn 0.3573 0.3579 0.8627
vn 0.4979 0.4044 0.7672
vn 0.5684 0.3579 0.7408
vn 0.8769 0.4367 -0.2010
vn 0.6795 0.4044 0.6121
vn 0.7408 0.3579 0.5684
vn 0.8148 0.4044 0.4154
vn 0.8627 0.3579 0.3573
vn 0.8030 0.5359 -0.2607
vn 0.7814 0.5811 -0.2275
vn 0.8431 0.5359 -0.0440
vn 0.8136 0.5811 -0.0175
vn 0.8258 0.5359 0.1757
vn 0.7904 0.5811 0.1937
vn 0.7522 0.5359 0.3835
vn 0.6959 0.5811 -0.4220
vn 0.7082 0.5359 -0.4597
vn 0.3683 0.5853 -0.7224
vn 0.5629 0.5811 -0.5877
vn 0.5651 0.5359 -0.6273
vn 0.4087 0.5279 -0.7445
vn 0.1937 0.5811 -0.7904
vn 0.1757 0.5359 -0.8258
vn 0.1757 0.5358 -0.8259
vn -0.0175 0.5811 -0.8136
vn -0.2607 0.5359 -0.8030
vn -0.4220 0.5811 -0.6959
vn -0.4597 0.5359 -0.7082
vn -0.5877 0.5811 -0.5629
vn -0.6273 0.5359 -0.5651
vn -0.7134 0.5811 -0.3916
vn -0.7522 0.5359 -0.3835
vn -0.7904 0.5811 -0.1937
vn -0.8258 0.5359 -0.1757
vn -0.8136 0.5811 0.0175
vn -0.8431 0.5359 0.0440
vn -0.7814 0.5811 0.2275
vn -0.8030 0.5359 0.2607
vn -0.6959 0.5811 0.4220
vn -0.5629 0.5811 0.5877
vn -0.5651 0.5359 0.6273
vn -0.3916 0.5811 0.7134
vn -0.3835 0.5359 0.7522
vn -0.1937 0.5811 0.7904
vn -0.1757 0.5359 0.8258
vn 0.0175 0.5811 0.8136
vn 0.0440 0.5359 0.8432
vn 0.4220 0.5811 0.6959
vn 0.4597 0.5359 0.7082
vn 0.5877 0.5811 0.5629
vn 0.6273 0.5359 0.5651
vn 0.7134 0.5811 0.3916
vn 0.4025 0.8303 0.3855
vn -0.4013 -0.8351 -0.3762
vn -0.4922 -0.8297 -0.2633
vn -0.4823 -0.8350 -0.2648
vn -0.5413 -0.8303 -0.1326
vn -0.5356 -0.8351 -0.1251
vn -0.3409 -0.2658 0.9017
vn 0.5572 0.8303 -0.0120
vn -0.5497 -0.8351 0.0178
vn -0.5351 -0.8303 0.1558
vn -0.5264 -0.8351 0.1594
vn -0.4765 -0.8303 0.2890
vn -0.4672 -0.8351 0.2903
vn -0.3855 -0.8303 0.4025
vn -0.3762 -0.8351 0.4013
vn -0.2903 -0.8351 -0.4672
vn -0.2890 -0.8303 -0.4765
vn -0.1618 -0.8297 -0.5342
vn -0.0178 -0.8351 -0.5497
vn -0.0120 -0.8303 -0.5572
vn 0.1309 -0.8350 -0.5344
vn 0.1270 -0.8297 -0.5435
vn 0.2648 -0.8350 -0.4823
vn 0.2633 -0.8297 -0.4922
vn 0.3762 -0.8351 -0.4013
vn 0.3855 -0.8303 -0.4025
vn 0.4672 -0.8351 -0.2903
vn 0.4765 -0.8303 -0.2890
vn 0.5264 -0.8351 -0.1594
vn 0.5351 -0.8303 -0.1558
vn 0.5497 -0.8351 -0.0178
vn 0.5572 -0.8303 -0.0120
vn 0.5344 -0.8350 0.1309
vn 0.5435 -0.8297 0.1270
vn 0.4823 -0.8350 0.2648
vn 0.4922 -0.8297 0.2633
vn 0.3974 -0.8350 0.3806
vn 0.4072 -0.8297 0.3817
vn 0.2853 -0.8350 0.4705
vn 0.2946 -0.8297 0.4741
vn 0.1538 -0.8350 0.5283
vn 0.1618 -0.8297 0.5342
vn 0.0178 -0.8352 0.5497
vn 0.1326 0.8303 -0.5413
vn -0.2682 -0.8303 0.4885
vn -0.2595 -0.8351 0.4850
vn -0.1251 -0.8352 0.5356
vn 0.0120 -0.8303 0.5572
vn 0.2668 -0.9494 -0.1658
vn 0.2412 -0.9546 -0.1751
vn 0.2148 -0.9494 -0.2292
vn -0.1877 0.9546 0.2316
vn -0.1482 0.9494 0.2770
vn -0.1213 0.9546 0.2722
vn -0.0715 0.9494 0.3059
vn -0.0467 0.9546 0.2944
vn 0.0101 0.9494 0.3140
vn 0.0310 0.9546 0.2964
vn 0.0911 0.9494 0.3006
vn 0.1067 0.9546 0.2783
vn 0.1658 0.9494 0.2668
vn 0.2316 0.9546 0.1877
vn 0.2770 0.9494 0.1482
vn 0.2722 0.9546 0.1213
vn 0.3059 0.9494 0.0715
vn 0.2944 0.9546 0.0467
vn 0.3140 0.9494 -0.0101
vn 0.2964 0.9546 -0.0310
vn 0.3006 0.9494 -0.0911
vn 0.2783 0.9546 -0.1067
vn 0.2668 0.9494 -0.1658
vn 0.2412 0.9546 -0.1751
vn 0.2148 0.9494 -0.2292
vn 0.1877 0.9546 -0.2316
vn 0.1482 0.9494 -0.2770
vn 0.1213 0.9546 -0.2722
vn 0.0715 0.9494 -0.3059
vn 0.0467 0.9546 -0.2944
vn -0.0101 0.9494 -0.3140
vn -0.0310 0.9546 -0.2964
vn -0.0911 0.9494 -0.3006
vn -0.1067 0.9546 -0.2783
vn -0.1658 0.9494 -0.2668
vn -0.1751 0.9546 -0.2412
vn -0.2292 0.9494 -0.2148
vn -0.2722 0.9546 -0.1213
vn -0.3059 0.9494 -0.0715
vn -0.2944 0.9546 -0.0467
vn -0.3140 0.9494 0.0101
vn -0.2964 0.9546 0.0310
vn -0.3006 0.9494 0.0911
vn -0.2783 0.9546 0.1067
vn 0.1699 -0.9777 -0.1234
vn -0.1705 0.9789 0.1123
vn -0.1356 0.9789 0.1526
vn -0.1322 0.9777 0.1631
vn -0.0855 0.9777 0.1918
vn -0.0411 0.9789 0.1999
vn 0.1240 -0.9923 -0.0000
vn -0.0329 0.9777 0.2074
vn 0.0120 0.9789 0.2038
vn 0.0219 0.9777 0.2088
vn 0.0643 0.9789 0.1937
vn 0.1234 0.9777 0.1699
vn 0.1526 0.9789 0.1356
vn 0.1631 0.9777 0.1322
vn 0.1999 0.9789 0.0411
vn 0.2074 0.9777 0.0329
vn 0.2038 0.9789 -0.0120
vn 0.2088 0.9777 -0.0219
vn 0.1937 0.9789 -0.0643
vn 0.1961 0.9777 -0.0752
vn 0.1705 0.9789 -0.1123
vn 0.1699 0.9777 -0.1234
vn 0.1356 0.9789 -0.1526
vn 0.1322 0.9777 -0.1631
vn 0.0915 0.9789 -0.1825
vn 0.0855 0.9777 -0.1918
vn 0.0411 0.9789 -0.1999
vn 0.0329 0.9777 -0.2074
vn -0.0120 0.9789 -0.2038
vn -0.0219 0.9777 -0.2088
vn -0.0643 0.9789 -0.1937
vn -0.0752 0.9777 -0.1961
vn -0.1123 0.9789 -0.1705
vn -0.1234 0.9777 -0.1699
vn -0.1526 0.9789 -0.1356
vn -0.1631 0.9777 -0.1322
vn -0.1825 0.9789 -0.0915
vn -0.1918 0.9777 -0.0855
vn -0.1999 0.9789 -0.0411
vn -0.2074 0.9777 -0.0329
vn -0.2038 0.9789 0.0120
vn -0.2088 0.9777 0.0219
vn -0.1961 0.9777 0.0752
vn -0.1937 0.9789 0.0643
vn 0.0495 0.9988 0.0065
vn 0.0493 0.9987 0.0101
vn -0.0488 -0.9986 0.0202
vn 0.0419 0.9987 -0.0276
vn 0.0334 0.9987 -0.0376
vn 0.0396 0.9988 -0.0304
vn 0.0471 0.9987 0.0195
vn 0.0449 0.9987 0.0225
vn 0.0404 0.9987 0.0310
vn 0.0376 0.9987 0.0334
vn 0.0310 0.9987 0.0404
vn 0.0276 0.9987 0.0420
vn 0.0065 0.9988 0.0495
vn 0.0195 0.9987 0.0471
vn 0.0158 0.9987 0.0477
vn 0.0158 0.9987 0.0476
vn 0.0233 -0.9982 -0.0561
vn 0.0069 -0.9986 -0.0523
vn -0.0000 -0.0000 -1.0000
vn -0.0029 -0.9988 -0.0495
vn 0.0225 -0.9987 -0.0450
vn 0.0101 -0.9987 -0.0491
vn 0.0304 -0.9988 -0.0396
vn 0.0359 -0.9987 -0.0359
vn 0.0456 -0.9983 -0.0350
vn 0.0561 -0.9982 -0.0232
vn 0.0329 -0.9988 -0.0371
vn -0.0476 0.9987 0.0158
vn -0.0503 0.9987 0.0030
vn 0.0590 0.9977 -0.0330
vn 0.0224 0.9988 -0.0447
vn 0.0168 0.9987 -0.0485
vn -0.0492 0.9987 -0.0101
vn -0.0505 0.9987 -0.0067
vn -0.0449 0.9987 -0.0225
vn -0.0471 0.9987 -0.0195
vn -0.0376 0.9987 -0.0334
vn -0.0274 0.9988 -0.0416
vn -0.0447 0.9984 -0.0343
vn -0.0311 0.9987 -0.0404
vn -0.0158 0.9987 -0.0477
vn -0.0195 0.9987 -0.0471
vn -0.0065 0.9988 -0.0495
vn -0.0030 0.9987 -0.0503
vn 0.0065 0.9988 -0.0495
vn 0.0370 0.9982 -0.0482
vn -0.0202 -0.9986 0.0488
vn -0.0369 -0.9982 0.0482
vn 0.0191 0.9988 -0.0461
vn 0.0101 0.9987 -0.0493
vn -0.9871 0.0940 -0.1299
vn 0.3827 -0.0000 0.9239
vn 0.6088 -0.0000 0.7934
vn 0.7934 -0.0000 0.6088
vn 0.9239 -0.0000 0.3827
vn 0.9914 -0.0000 0.1305
vn 0.9914 -0.0000 -0.1305
vn 0.9239 -0.0000 -0.3827
vn 0.7934 -0.0000 -0.6088
vn 0.6088 -0.0000 -0.7934
vn -0.0001 -1.0000 -0.0000
vn 0.7071 -0.0000 0.7071
vn 0.2588 -0.0000 0.9659
vn -0.1305 -0.0000 0.9914
vn -0.3827 -0.0000 0.9239
vn -0.6088 -0.0000 0.7934
vn -0.7934 -0.0000 0.6088
vn -0.9914 -0.0000 -0.1305
vn -0.9239 -0.0000 -0.3827
vn -0.7934 -0.0000 -0.6087
vn -0.6088 -0.0000 -0.7934
vn -0.2588 -0.0000 -0.9659
vn -0.3827 -0.0000 -0.9239
vn 0.2588 -0.0000 -0.9659
vn 0.3827 -0.0000 -0.9239
vn 0.6088 -0.0000 -0.7933
vn -0.9871 0.0940 0.1299
vn -0.9198 0.0940 0.3810
vn -0.6061 0.0940 -0.7898
vn -0.7898 0.0940 -0.6061
vn -0.7672 0.4044 0.4979
vn -0.7082 0.5359 0.4597
vn 0.2607 0.5359 0.8030
vn 0.9258 0.3579 0.1219
vn 0.8946 0.4044 0.1904
vn -0.0440 0.5359 -0.8431
vn -0.2275 0.5811 -0.7814
vn -0.2316 0.9546 -0.1877
vn -0.2770 0.9494 -0.1482
vn 0.2275 0.5811 0.7814
vn -0.1538 -0.8350 -0.5283
vn 0.0752 0.9777 0.1961
vn 0.1123 0.9789 0.1705
vn 0.1751 0.9546 0.2412
vn 0.2292 0.9494 0.2148
vn 0.1825 0.9789 0.0915
vn 0.1918 0.9777 0.0855
vn 0.0503 0.9987 -0.0030
vn 0.0523 0.9986 -0.0069
vn 0.0476 0.9987 -0.0158
vn -0.0414 0.9988 0.0273
vn -0.0915 0.9789 0.1825
vn 0.0226 -0.9987 -0.0450
vn -0.9659 -0.0000 0.2588
vn -0.0602 0.9982 0.0079
vn -0.0000 1.0000 -0.0000
vn -0.1305 -0.0000 -0.9914
vn 0.1305 -0.0000 -0.9914
vn 0.6061 0.0940 -0.7898
vn -0.7001 -0.0000 -0.7140
vn -0.5769 -0.0000 -0.8168
vn -0.4466 -0.0000 -0.8947
vn -0.3435 -0.0000 -0.9392
vn -0.2301 -0.0000 -0.9732
vn -0.1177 -0.0000 -0.9931
vn 0.0649 -0.0000 -0.9979
vn 0.0649 -0.0000 0.9979
vn -0.0000 -0.0000 1.0000
vn -0.1165 -0.0000 0.9932
vn -0.2314 -0.0000 0.9729
vn -0.4502 -0.0000 0.8930
vn -0.5770 -0.0000 0.8168
vn -0.6983 -0.0000 0.7158
vn 0.1296 -0.0000 0.9916
vn -0.7629 -0.0000 0.6466
vn -0.7628 -0.0000 0.6466
vn -0.9720 -0.0000 0.2351
vn -1.0000 -0.0000 -0.0000
vn -0.9861 -0.0000 -0.1664
vn -0.9983 -0.0000 -0.0585
vn -0.9711 -0.0000 -0.2389
vn -0.9239 -0.0000 -0.3826
vn 0.1296 -0.0000 -0.9916
vn -0.7621 -0.0000 -0.6475
vn -0.9980 -0.0000 0.0635
vn -0.9911 -0.0000 0.1331
vn -0.9550 -0.0000 0.2968
vn -0.9034 -0.0000 0.4287
vn -0.8445 -0.0000 0.5355
vn -0.8005 -0.0000 0.5993
vn -0.7978 -0.0000 -0.6029
vn -0.8688 -0.0000 -0.4952
vn -0.3431 -0.0000 0.9393
vn -0.3810 0.0940 0.9198
vn 0.3810 0.0940 0.9198
vn 0.6061 0.0940 0.7898
vn -0.7898 0.0940 0.6061
vn -0.6061 0.0940 0.7898
vn -0.1299 0.0940 0.9871
vn 0.1299 0.0940 0.9871
vn 0.1305 -0.0000 0.9914
s 0
usemtl [Color_008]
f 1//1 2//1 3//1
f 2//1 1//1 4//1
f 1//2 5//2 4//2
f 5//2 1//2 6//2
f 6//3 7//3 5//3
f 7//3 6//3 8//3
f 9//4 10//4 11//4
f 10//4 9//4 12//4
f 3//5 13//5 14//5
f 13//5 3//5 2//5
f 14//6 15//6 16//6
f 15//6 14//6 13//6
f 16//7 17//7 18//7
f 17//7 16//7 15//7
f 19//8 11//8 20//8
f 11//8 19//8 9//8
f 21//9 20//9 22//9
f 20//9 21//9 19//9
f 23//10 24//10 25//10
f 24//10 23//10 26//10
f 26//10 23//10 22//10
f 22//10 23//10 21//10
f 27//11 28//11 29//11
f 28//11 27//11 30//11
f 31//12 32//12 2//12
f 4//13 31//13 2//13
f 33//14 31//14 4//14
f 5//15 33//15 4//15
f 34//16 33//16 5//16
f 7//17 34//17 5//17
f 34//18 7//18 35//18
f 35//19 7//19 12//19
f 35//20 12//20 36//20
f 36//21 12//21 9//21
f 37//22 36//22 9//22
f 36//23 37//23 38//23
f 37//24 9//24 19//24
f 37//25 19//25 39//25
f 39//26 19//26 21//26
f 39//27 21//27 40//27
f 40//28 21//28 23//28
f 40//29 23//29 41//29
f 41//30 23//30 42//30
f 42//31 43//31 41//31
f 42//32 27//32 43//32
f 43//33 27//33 44//33
f 27//34 29//34 44//34
f 44//35 29//35 45//35
f 29//36 46//36 45//36
f 45//37 46//37 47//37
f 46//38 48//38 47//38
f 47//39 48//39 49//39
f 48//40 50//40 49//40
f 50//41 51//41 52//41
f 52//42 51//42 53//42
f 53//43 51//43 54//43
f 53//44 54//44 55//44
f 55//45 54//45 56//45
f 55//46 56//46 57//46
f 57//47 56//47 58//47
f 57//48 58//48 59//48
f 59//49 58//49 60//49
f 59//50 60//50 61//50
f 61//51 60//51 62//51
f 61//52 62//52 63//52
f 63//53 62//53 17//53
f 65//55 63//55 17//55
f 15//56 65//56 17//56
f 66//57 65//57 15//57
f 13//58 66//58 15//58
f 33//59 67//59 31//59
f 67//60 68//60 31//60
f 31//61 68//61 32//61
f 68//62 69//62 32//62
f 32//63 69//63 66//63
f 69//64 70//64 66//64
f 66//65 70//65 65//65
f 71//66 67//66 33//66
f 34//67 71//67 33//67
f 72//68 35//68 36//68
f 71//69 34//69 72//69
f 72//70 34//70 35//70
f 72//71 36//71 73//71
f 73//72 36//72 74//72
f 74//73 38//73 37//73
f 38//74 74//74 36//74
f 74//75 37//75 75//75
f 76//76 39//76 40//76
f 76//77 40//77 77//77
f 77//78 40//78 41//78
f 41//79 78//79 77//79
f 41//80 43//80 78//80
f 43//81 79//81 78//81
f 43//82 44//82 79//82
f 79//83 44//83 80//83
f 44//84 45//84 80//84
f 80//85 45//85 81//85
f 45//86 47//86 81//86
f 81//87 47//87 82//87
f 47//88 49//88 82//88
f 82//89 49//89 83//89
f 83//90 52//90 84//90
f 84//91 52//91 53//91
f 84//92 53//92 85//92
f 85//93 53//93 55//93
f 85//94 55//94 86//94
f 86//95 55//95 57//95
f 86//96 57//96 87//96
f 87//97 57//97 59//97
f 88//98 61//98 89//98
f 89//99 61//99 63//99
f 90//100 89//100 63//100
f 90//101 63//101 65//101
f 70//102 90//102 65//102
f 90//103 91//103 89//103
f 90//104 91//104 92//104
f 93//105 90//105 92//105
f 70//106 90//106 93//106
f 69//107 70//107 93//107
f 69//108 93//108 94//108
f 94//109 95//109 69//109
f 69//110 68//110 94//110
f 68//111 94//111 96//111
f 68//112 96//112 67//112
f 67//113 96//113 97//113
f 67//114 97//114 71//114
f 97//115 98//115 71//115
f 71//116 98//116 72//116
f 98//117 99//117 72//117
f 89//118 100//118 91//118
f 89//119 88//119 100//119
f 100//120 87//120 101//120
f 87//121 102//121 101//121
f 87//122 86//122 102//122
f 102//123 86//123 85//123
f 102//124 85//124 103//124
f 103//125 85//125 84//125
f 103//126 84//126 104//126
f 104//127 84//127 105//127
f 84//128 83//128 105//128
f 105//129 83//129 106//129
f 83//130 82//130 106//130
f 106//131 82//131 107//131
f 107//132 82//132 81//132
f 107//133 81//133 108//133
f 108//134 81//134 80//134
f 108//135 80//135 79//135
f 109//136 108//136 79//136
f 78//137 109//137 79//137
f 110//138 109//138 78//138
f 77//139 110//139 78//139
f 111//140 110//140 77//140
f 76//141 111//141 77//141
f 112//142 111//142 76//142
f 75//143 112//143 76//143
f 113//144 112//144 75//144
f 114//145 113//145 75//145
f 73//146 74//146 115//146
f 72//147 99//147 73//147
f 99//148 115//148 73//148
f 115//149 114//149 74//149
f 74//150 114//150 75//150
f 116//151 105//151 106//151
f 117//152 105//152 116//152
f 117//153 104//153 105//153
f 118//154 117//154 104//154
f 103//155 118//155 104//155
f 119//156 118//156 103//156
f 102//157 119//157 103//157
f 120//158 119//158 102//158
f 101//159 120//159 102//159
f 121//160 120//160 101//160
f 100//161 121//161 101//161
f 100//162 122//162 121//162
f 91//163 122//163 100//163
f 92//164 123//164 124//164
f 93//165 123//165 92//165
f 93//166 125//166 123//166
f 94//167 125//167 93//167
f 94//168 126//168 125//168
f 94//169 96//169 126//169
f 96//170 127//170 126//170
f 96//171 97//171 127//171
f 97//172 128//172 127//172
f 97//173 98//173 128//173
f 98//174 129//174 128//174
f 98//175 99//175 129//175
f 99//176 130//176 129//176
f 99//177 115//177 130//177
f 130//178 115//178 131//178
f 115//179 114//179 131//179
f 131//180 114//180 132//180
f 114//181 113//181 132//181
f 132//182 113//182 133//182
f 113//183 112//183 133//183
f 133//184 112//184 134//184
f 134//185 112//185 111//185
f 134//186 111//186 135//186
f 135//187 111//187 110//187
f 136//188 109//188 137//188
f 137//189 109//189 108//189
f 137//190 108//190 138//190
f 138//191 108//191 107//191
f 139//192 138//192 107//192
f 139//193 107//193 106//193
f 116//194 139//194 106//194
f 140//195 117//195 116//195
f 140//196 141//196 116//196
f 142//197 140//197 117//197
f 142//198 117//198 118//198
f 143//199 118//199 119//199
f 144//200 143//200 119//200
f 143//201 144//201 145//201
f 120//202 144//202 119//202
f 146//203 144//203 120//203
f 121//204 146//204 120//204
f 147//205 146//205 121//205
f 124//206 148//206 122//206
f 124//207 149//207 148//207
f 123//208 149//208 124//208
f 125//209 150//209 151//209
f 126//210 150//210 125//210
f 126//211 152//211 150//211
f 126//212 127//212 152//212
f 127//213 153//213 152//213
f 127//214 128//214 153//214
f 128//215 154//215 153//215
f 128//216 129//216 154//216
f 129//217 155//217 154//217
f 129//218 130//218 155//218
f 130//219 156//219 155//219
f 130//220 131//220 156//220
f 131//221 157//221 156//221
f 131//222 132//222 157//222
f 157//223 132//223 158//223
f 132//224 133//224 158//224
f 158//225 133//225 159//225
f 133//226 134//226 159//226
f 159//227 134//227 160//227
f 160//228 134//228 135//228
f 160//229 135//229 161//229
f 161//230 135//230 136//230
f 161//231 136//231 162//231
f 162//232 136//232 137//232
f 162//233 137//233 163//233
f 163//234 137//234 138//234
f 164//235 163//235 138//235
f 164//236 138//236 139//236
f 141//237 139//237 116//237
f 141//238 164//238 139//238
f 150//239 165//239 166//239
f 150//240 166//240 151//240
f 154//241 167//241 168//241
f 153//242 154//242 167//242
f 154//243 155//243 169//243
f 154//244 169//244 168//244
f 149//245 166//245 170//245
f 166//246 149//246 151//246
f 148//247 170//247 171//247
f 170//248 148//248 149//248
f 147//249 171//249 172//249
f 171//250 147//250 148//250
f 173//251 174//251 175//251
f 174//252 173//252 172//252
f 172//253 173//253 147//253
f 147//254 173//254 146//254
f 176//255 146//255 177//255
f 146//256 176//256 175//256
f 146//257 175//257 173//257
f 146//258 144//258 177//258
f 177//259 143//259 178//259
f 177//260 145//260 143//260
f 145//260 177//260 144//260
f 177//261 178//261 179//261
f 180//262 178//262 142//262
f 178//263 180//263 179//263
f 180//264 142//264 181//264
f 181//265 142//265 140//265
f 182//266 164//266 141//266
f 182//267 163//267 164//267
f 183//268 156//268 184//268
f 156//269 183//269 155//269
f 155//270 183//270 169//270
f 182//271 162//271 163//271
f 162//272 182//272 185//272
f 185//273 161//273 162//273
f 186//274 161//274 185//274
f 186//275 160//275 161//275
f 186//276 159//276 160//276
f 159//277 186//277 187//277
f 188//278 159//278 187//278
f 188//279 158//279 159//279
f 158//280 188//280 189//280
f 190//281 158//281 189//281
f 157//282 158//282 190//282
f 157//283 190//283 191//283
f 183//284 184//284 169//284
f 157//285 184//285 191//285
f 184//286 157//286 183//286
f 156//287 191//287 184//287
f 156//288 157//288 191//288
f 29//289 192//289 46//289
f 192//289 29//289 193//289
f 193//289 29//289 28//289
f 22//290 194//290 195//290
f 194//290 22//290 26//290
f 26//290 196//290 194//290
f 196//290 26//290 24//290
f 24//290 197//290 196//290
f 197//290 24//290 25//290
f 25//291 198//291 197//291
f 198//291 25//291 199//291
f 199//291 200//291 198//291
f 200//291 199//291 201//291
f 201//291 202//291 200//291
f 202//291 201//291 203//291
f 202//292 204//292 205//292
f 204//292 202//292 203//292
f 205//292 206//292 207//292
f 206//292 205//292 204//292
f 207//292 30//292 208//292
f 30//292 207//292 206//292
f 208//293 28//293 209//293
f 28//293 208//293 30//293
f 209//294 193//294 210//294
f 193//294 209//294 28//294
f 210//294 192//294 211//294
f 192//294 210//294 193//294
f 211//295 212//295 213//295
f 212//295 211//295 192//295
f 213//295 214//295 215//295
f 214//295 213//295 212//295
f 215//296 216//296 217//296
f 216//296 215//296 214//296
f 217//297 218//297 219//297
f 218//297 217//297 216//297
f 219//297 220//297 221//297
f 220//297 219//297 218//297
f 221//297 222//297 223//297
f 222//297 221//297 220//297
f 222//298 224//298 223//298
f 224//298 222//298 225//298
f 225//298 226//298 224//298
f 226//298 225//298 227//298
f 48//315 212//315 214//315
f 212//315 48//315 46//315
f 212//315 46//315 192//315
f 50//316 214//316 216//316
f 214//316 50//316 48//316
f 42//317 201//317 203//317
f 201//317 42//317 199//317
f 199//317 42//317 25//317
f 25//317 42//317 23//317
f 42//318 30//318 27//318
f 30//318 42//318 206//318
f 206//318 42//318 204//318
f 204//318 42//318 203//318
f 49//319 50//319 52//319
f 49//320 52//320 83//320
f 88//321 59//321 61//321
f 2//322 32//322 13//322
f 32//323 66//323 13//323
f 75//324 37//324 39//324
f 75//325 39//325 76//325
f 135//326 110//326 136//326
f 136//327 110//327 109//327
f 87//328 59//328 88//328
f 88//329 87//329 100//329
f 122//330 147//330 121//330
f 122//331 148//331 147//331
f 91//332 124//332 122//332
f 92//333 124//333 91//333
f 123//334 151//334 149//334
f 125//335 151//335 123//335
f 150//336 152//336 165//336
f 165//337 153//337 167//337
f 153//338 165//338 152//338
f 182//339 141//339 140//339
f 143//340 142//340 118//340
f 178//341 143//341 142//341
f 181//343 182//343 140//343
f 11//313 249//313 250//313
f 249//313 11//313 10//313
f 251//297 6//297 252//297
f 6//297 251//297 8//297
f 252//296 1//296 253//296
f 1//296 252//296 6//296
f 253//295 3//295 254//295
f 1//295 3//295 253//295
f 254//294 14//294 255//294
f 14//294 254//294 3//294
f 255//293 16//293 256//293
f 16//293 255//293 14//293
f 256//292 18//292 257//292
f 18//292 256//292 16//292
f 195//345 258//345 259//345
f 258//345 195//345 20//345
f 20//345 195//345 22//345
f 20//346 250//346 258//346
f 250//346 20//346 11//346
f 12//347 8//347 10//347
f 8//347 12//347 7//347
f 10//298 251//298 249//298
f 251//298 10//298 8//298
f 298//313 299//313 300//313
f 299//313 298//313 301//313
f 301//313 297//313 299//313
f 297//313 301//313 296//313
f 224//298 302//298 303//298
f 302//298 224//298 226//298
f 223//298 303//298 304//298
f 303//298 223//298 224//298
f 226//314 305//314 302//314
f 305//314 226//314 306//314
f 307//297 223//297 304//297
f 223//297 307//297 221//297
f 308//297 219//297 309//297
f 219//297 308//297 217//297
f 309//297 221//297 307//297
f 221//297 309//297 219//297
f 328//293 209//293 329//293
f 209//293 328//293 208//293
f 330//292 208//292 328//292
f 208//292 330//292 207//292
f 195//290 331//290 259//290
f 331//290 195//290 194//290
f 332//292 207//292 330//292
f 207//292 332//292 205//292
f 333//292 205//292 332//292
f 205//292 333//292 202//292
f 200//291 333//291 334//291
f 333//291 200//291 202//291
f 198//291 334//291 335//291
f 334//291 198//291 200//291
f 197//291 335//291 336//291
f 335//291 197//291 198//291
f 339//296 217//296 308//296
f 217//296 339//296 215//296
f 194//290 340//290 331//290
f 340//290 194//290 196//290
f 196//290 336//290 340//290
f 336//290 196//290 197//290
f 341//295 215//295 339//295
f 215//295 341//295 213//295
f 329//294 210//294 342//294
f 210//294 329//294 209//294
f 342//294 211//294 343//294
f 211//294 342//294 210//294
f 343//295 213//295 341//295
f 213//295 343//295 211//295
f 306//298 300//298 305//298
f 300//298 306//298 298//298
f 56//382 357//382 358//382
f 357//382 56//382 359//382
f 359//382 56//382 54//382
f 62//383 360//383 361//383
f 360//383 62//383 60//383
f 17//384 361//384 18//384
f 361//384 17//384 62//384
f 361//290 362//290 363//290
f 362//290 361//290 360//290
f 18//291 363//291 257//291
f 363//291 18//291 361//291
f 51//385 220//385 222//385
f 220//385 51//385 218//385
f 218//385 51//385 50//385
f 218//385 50//385 216//385
f 54//386 364//386 359//386
f 364//386 54//386 227//386
f 227//386 54//386 225//386
f 225//386 54//386 222//386
f 222//386 54//386 51//386
f 58//387 358//387 365//387
f 358//387 58//387 56//387
f 60//388 365//388 360//388
f 365//388 60//388 58//388
f 227//314 306//314 226//314
f 306//314 227//314 364//314
f 364//298 298//298 306//298
f 298//298 364//298 359//298
f 359//313 301//313 298//313
f 301//313 359//313 357//313
f 357//313 296//313 301//313
f 296//313 357//313 358//313
f 365//302 297//302 366//302
f 297//302 365//302 296//302
f 296//302 365//302 358//302
f 360//389 366//389 362//389
f 366//389 360//389 365//389
usemtl Material
f 64//54 63//54 17//54
f 228//299 229//299 230//299
f 229//23 228//23 231//23
f 229//23 231//23 232//23
f 232//23 231//23 233//23
f 232//23 233//23 234//23
f 234//23 233//23 235//23
f 235//23 233//23 236//23
f 235//23 236//23 237//23
f 237//23 236//23 238//23
f 238//23 236//23 239//23
f 238//23 239//23 240//23
f 240//23 239//23 241//23
f 240//23 241//23 242//23
f 242//23 241//23 243//23
f 242//23 243//23 244//23
f 244//23 243//23 245//23
f 244//23 245//23 246//23
f 246//23 245//23 247//23
f 246//23 247//23 248//23
f 186//293 228//293 185//293
f 228//293 186//293 231//293
f 188//300 231//300 186//300
f 231//300 188//300 233//300
f 236//301 188//301 190//301
f 188//301 236//301 233//301
f 239//302 190//302 191//302
f 190//302 239//302 236//302
f 241//303 191//303 184//303
f 191//303 241//303 239//303
f 243//304 184//304 169//304
f 184//304 243//304 241//304
f 243//305 168//305 245//305
f 168//305 243//305 169//305
f 247//306 166//306 248//306
f 166//306 247//306 165//306
f 248//307 170//307 246//307
f 170//307 248//307 166//307
f 246//308 171//308 244//308
f 171//308 246//308 170//308
f 242//309 171//309 172//309
f 171//309 242//309 244//309
s 1
f 240//310 172//311 174//310
f 172//311 240//310 242//311
f 238//257 174//310 175//257
f 174//310 238//257 240//310
f 237//312 175//257 176//312
f 175//257 237//312 238//257
f 235//313 176//312 177//313
f 176//312 235//313 237//312
s 0
f 234//298 177//298 179//298
f 177//314 234//314 235//314
f 180//297 234//297 179//297
f 234//297 180//297 232//297
f 181//296 232//296 180//296
f 232//296 181//296 229//296
f 185//294 230//294 182//294
f 230//294 185//294 228//294
f 245//342 165//342 247//342
f 165//342 245//342 168//342
f 182//295 229//295 181//295
f 229//295 182//295 230//295
f 181//344 185//344 182//344
f 185//344 181//344 180//344
f 185//344 180//344 186//344
f 186//344 180//344 179//344
f 186//344 179//344 188//344
f 188//344 179//344 177//344
f 188//344 177//344 190//344
f 190//344 177//344 176//344
f 190//344 176//344 175//344
f 190//344 175//344 174//344
f 190//344 174//344 191//344
f 191//344 174//344 184//344
f 184//344 174//344 172//344
f 184//344 172//344 169//344
f 169//344 172//344 171//344
f 169//344 171//344 170//344
f 169//344 170//344 168//344
f 168//344 170//344 166//344
f 168//344 166//344 165//344
f 311//23 350//23 355//23
usemtl [Color_009]
f 260//348 261//348 262//348
f 261//348 260//348 263//348
f 263//349 264//349 261//349
f 264//349 263//349 265//349
f 265//350 266//350 264//350
f 266//350 265//350 267//350
f 267//351 268//351 266//351
f 268//351 267//351 269//351
f 269//352 270//352 268//352
f 270//352 269//352 271//352
f 271//353 272//353 270//353
f 272//353 271//353 273//353
f 273//257 274//257 272//257
f 274//257 273//257 275//257
f 275//354 276//354 274//354
f 276//354 275//354 277//354
f 278//355 279//355 280//355
f 279//355 278//355 281//355
f 281//356 282//356 279//356
f 282//356 281//356 283//356
f 283//357 284//357 282//357
f 284//357 283//357 285//357
f 285//358 286//358 284//358
f 286//358 285//358 287//358
f 288//359 289//359 290//359
f 289//359 288//359 291//359
f 291//360 292//360 289//360
f 292//360 291//360 293//360
f 293//361 294//361 292//361
f 294//361 293//361 295//361
f 296//362 280//362 297//362
f 280//362 296//362 278//362
f 310//363 294//363 295//363
f 294//364 310//364 311//364
f 312//365 313//365 314//365
f 313//365 312//365 315//365
f 316//366 317//366 318//366
f 317//366 316//366 319//366
f 320//367 321//367 322//367
f 321//367 320//367 323//367
f 322//368 319//368 316//368
f 319//368 322//368 321//368
f 324//369 323//369 320//369
f 323//369 324//369 325//369
f 326//370 325//370 324//370
f 325//370 326//370 327//370
f 276//371 195//371 259//371
f 195//371 276//371 277//371
f 260//372 337//372 338//372
f 337//372 260//372 262//372
f 318//373 344//373 345//373
f 344//373 318//373 317//373
f 345//374 315//374 312//374
f 315//374 345//374 344//374
f 314//375 346//375 347//375
f 346//375 314//375 313//375
f 347//376 348//376 349//376
f 348//376 347//376 346//376
f 349//377 350//377 351//377
f 350//377 349//377 348//377
f 351//378 311//378 310//378
f 311//378 351//378 350//378
f 338//379 352//379 353//379
f 352//379 338//379 337//379
f 353//380 327//380 326//380
f 327//380 353//380 352//380
f 354//23 290//23 289//23
f 290//23 354//23 286//23
f 286//23 354//23 268//23
f 286//23 268//23 270//23
f 286//23 270//23 343//23
f 343//23 270//23 342//23
f 342//23 270//23 329//23
f 329//23 270//23 272//23
f 329//23 272//23 328//23
f 328//23 272//23 330//23
f 330//23 272//23 332//23
f 332//23 272//23 274//23
f 332//23 274//23 333//23
f 333//23 274//23 334//23
f 334//23 274//23 276//23
f 334//23 276//23 335//23
f 335//23 276//23 336//23
f 336//23 276//23 340//23
f 340//23 276//23 331//23
f 331//23 276//23 259//23
f 343//23 284//23 286//23
f 284//23 343//23 341//23
f 284//23 341//23 339//23
f 284//23 339//23 282//23
f 282//23 339//23 308//23
f 282//23 308//23 309//23
f 282//23 309//23 307//23
f 282//23 307//23 304//23
f 282//23 304//23 279//23
f 279//23 304//23 303//23
f 279//23 303//23 302//23
f 279//23 302//23 280//23
f 280//23 302//23 305//23
f 280//23 305//23 300//23
f 280//23 300//23 299//23
f 280//23 299//23 297//23
f 261//23 354//23 262//23
f 354//23 261//23 264//23
f 354//23 264//23 266//23
f 354//23 266//23 268//23
f 323//23 354//23 321//23
f 354//23 323//23 325//23
f 354//23 325//23 327//23
f 354//23 327//23 352//23
f 354//23 352//23 337//23
f 354//23 337//23 262//23
f 321//23 317//23 319//23
f 317//23 321//23 344//23
f 344//23 321//23 315//23
f 315//23 321//23 354//23
f 315//23 354//23 313//23
f 313//23 354//23 346//23
f 354//23 292//23 294//23
f 292//23 354//23 289//23
f 354//23 311//23 355//23
f 311//23 354//23 294//23
f 354//23 348//23 346//23
f 354//23 356//23 348//23
f 356//23 350//23 348//23
f 350//23 356//23 355//23
f 354//23 355//23 356//23
f 345//344 316//344 318//344
f 316//344 345//344 322//344
f 322//344 345//344 312//344
f 322//344 312//344 320//344
f 320//344 312//344 314//344
f 320//344 314//344 324//344
f 324//344 314//344 347//344
f 324//344 347//344 326//344
f 326//344 347//344 349//344
f 326//344 349//344 353//344
f 353//344 349//344 351//344
f 353//344 351//344 338//344
f 338//344 351//344 310//344
f 338//344 310//344 295//344
f 338//344 295//344 260//344
f 260//344 295//344 293//344
f 260//344 293//344 263//344
f 263//344 293//344 291//344
f 263//344 291//344 265//344
f 265//344 291//344 288//344
f 265//344 288//344 267//344
f 267//344 288//344 287//344
f 267//344 287//344 269//344
f 269//344 287//344 285//344
f 269//344 285//344 211//344
f 211//344 285//344 213//344
f 213//344 285//344 215//344
f 215//344 285//344 283//344
f 215//344 283//344 217//344
f 217//344 283//344 219//344
f 219//344 283//344 221//344
f 221//344 283//344 281//344
f 221//344 281//344 223//344
f 223//344 281//344 224//344
f 224//344 281//344 226//344
f 226//344 281//344 278//344
f 226//344 278//344 306//344
f 306//344 278//344 298//344
f 298//344 278//344 301//344
f 301//344 278//344 296//344
f 211//344 271//344 269//344
f 271//344 211//344 210//344
f 271//344 210//344 209//344
f 271//344 209//344 273//344
f 273//344 209//344 208//344
f 273//344 208//344 207//344
f 273//344 207//344 205//344
f 273//344 205//344 202//344
f 273//344 202//344 275//344
f 275//344 202//344 200//344
f 275//344 200//344 198//344
f 275//344 198//344 277//344
f 277//344 198//344 197//344
f 277//344 197//344 196//344
f 277//344 196//344 194//344
f 277//344 194//344 195//344
f 287//381 290//381 286//381
f 290//381 287//381 288//381
